<svg id="visual" viewBox="0 0 900 100" width="900" height="100" xmlns="http://www.w3.org/2000/svg" xmlns:xlink="http://www.w3.org/1999/xlink" version="1.1"><rect x="0" y="0" width="900" height="100" fill="#ffffff"></rect><path d="M0 76L7.5 68.5C15 61 30 46 45 39C60 32 75 33 90 39.7C105 46.3 120 58.7 135 59.5C150 60.3 165 49.7 180 43C195 36.3 210 33.7 225 34.2C240 34.7 255 38.3 270 43.5C285 48.7 300 55.3 315 54C330 52.7 345 43.3 360 41C375 38.7 390 43.3 405 43C420 42.7 435 37.3 450 33.8C465 30.3 480 28.7 495 28.5C510 28.3 525 29.7 540 29.3C555 29 570 27 585 32.2C600 37.3 615 49.7 630 57.5C645 65.3 660 68.7 675 68.8C690 69 705 66 720 62.5C735 59 750 55 765 52.5C780 50 795 49 810 52.8C825 56.7 840 65.3 855 70.2C870 75 885 76 892.5 76.5L900 77L900 0L892.5 0C885 0 870 0 855 0C840 0 825 0 810 0C795 0 780 0 765 0C750 0 735 0 720 0C705 0 690 0 675 0C660 0 645 0 630 0C615 0 600 0 585 0C570 0 555 0 540 0C525 0 510 0 495 0C480 0 465 0 450 0C435 0 420 0 405 0C390 0 375 0 360 0C345 0 330 0 315 0C300 0 285 0 270 0C255 0 240 0 225 0C210 0 195 0 180 0C165 0 150 0 135 0C120 0 105 0 90 0C75 0 60 0 45 0C30 0 15 0 7.5 0L0 0Z" fill="#41c124" stroke-linecap="round" stroke-linejoin="miter"></path></svg>