<svg id="visual" viewBox="0 0 220 400" width="220" height="400" xmlns="http://www.w3.org/2000/svg" xmlns:xlink="http://www.w3.org/1999/xlink" version="1.1"><rect x="0" y="0" width="220" height="400" fill="#41c124"></rect><path d="M73 0L71.2 4.8C69.3 9.7 65.7 19.3 63.5 28.8C61.3 38.3 60.7 47.7 59.3 57.2C58 66.7 56 76.3 57.5 85.8C59 95.3 64 104.7 66.7 114.2C69.3 123.7 69.7 133.3 69.5 142.8C69.3 152.3 68.7 161.7 65.7 171.2C62.7 180.7 57.3 190.3 58 200C58.7 209.7 65.3 219.3 66.5 228.8C67.7 238.3 63.3 247.7 60 257.2C56.7 266.7 54.3 276.3 52.5 285.8C50.7 295.3 49.3 304.7 51.5 314.2C53.7 323.7 59.3 333.3 61.5 342.8C63.7 352.3 62.3 361.7 64.5 371.2C66.7 380.7 72.3 390.3 75.2 395.2L78 400L0 400L0 395.2C0 390.3 0 380.7 0 371.2C0 361.7 0 352.3 0 342.8C0 333.3 0 323.7 0 314.2C0 304.7 0 295.3 0 285.8C0 276.3 0 266.7 0 257.2C0 247.7 0 238.3 0 228.8C0 219.3 0 209.7 0 200C0 190.3 0 180.7 0 171.2C0 161.7 0 152.3 0 142.8C0 133.3 0 123.7 0 114.2C0 104.7 0 95.3 0 85.8C0 76.3 0 66.7 0 57.2C0 47.7 0 38.3 0 28.8C0 19.3 0 9.7 0 4.8L0 0Z" fill="#121212" stroke-linecap="round" stroke-linejoin="miter"></path></svg>