<svg id="visual" viewBox="0 0 900 300" width="900" height="300" xmlns="http://www.w3.org/2000/svg" xmlns:xlink="http://www.w3.org/1999/xlink" version="1.1"><rect x="0" y="0" width="900" height="300" fill="#ffffff"></rect><path d="M0 192L10.7 192C21.3 192 42.7 192 64.2 182.7C85.7 173.3 107.3 154.7 128.8 155.7C150.3 156.7 171.7 177.3 193 182.7C214.3 188 235.7 178 257 181.3C278.3 184.7 299.7 201.3 321.2 195.5C342.7 189.7 364.3 161.3 385.8 150.3C407.3 139.3 428.7 145.7 450 164.7C471.3 183.7 492.7 215.3 514.2 220.7C535.7 226 557.3 205 578.8 201.7C600.3 198.3 621.7 212.7 643 217.8C664.3 223 685.7 219 707 215.3C728.3 211.7 749.7 208.3 771.2 203.7C792.7 199 814.3 193 835.8 184.2C857.3 175.3 878.7 163.7 889.3 157.8L900 152L900 301L889.3 301C878.7 301 857.3 301 835.8 301C814.3 301 792.7 301 771.2 301C749.7 301 728.3 301 707 301C685.7 301 664.3 301 643 301C621.7 301 600.3 301 578.8 301C557.3 301 535.7 301 514.2 301C492.7 301 471.3 301 450 301C428.7 301 407.3 301 385.8 301C364.3 301 342.7 301 321.2 301C299.7 301 278.3 301 257 301C235.7 301 214.3 301 193 301C171.7 301 150.3 301 128.8 301C107.3 301 85.7 301 64.2 301C42.7 301 21.3 301 10.7 301L0 301Z" fill="#41c124" stroke-linecap="round" stroke-linejoin="miter"></path></svg>