<svg id="visual" viewBox="0 0 900 300" width="900" height="300" xmlns="http://www.w3.org/2000/svg" xmlns:xlink="http://www.w3.org/1999/xlink" version="1.1"><rect x="0" y="0" width="900" height="300" fill="#121212"></rect><path d="M0 218L10.7 211.8C21.3 205.7 42.7 193.3 64.2 183.3C85.7 173.3 107.3 165.7 128.8 169.8C150.3 174 171.7 190 193 186.8C214.3 183.7 235.7 161.3 257 157.5C278.3 153.7 299.7 168.3 321.2 180.2C342.7 192 364.3 201 385.8 193.5C407.3 186 428.7 162 450 162.2C471.3 162.3 492.7 186.7 514.2 200C535.7 213.3 557.3 215.7 578.8 222.2C600.3 228.7 621.7 239.3 643 235.7C664.3 232 685.7 214 707 194.7C728.3 175.3 749.7 154.7 771.2 157.7C792.7 160.7 814.3 187.3 835.8 190.3C857.3 193.3 878.7 172.7 889.3 162.3L900 152L900 301L889.3 301C878.7 301 857.3 301 835.8 301C814.3 301 792.7 301 771.2 301C749.7 301 728.3 301 707 301C685.7 301 664.3 301 643 301C621.7 301 600.3 301 578.8 301C557.3 301 535.7 301 514.2 301C492.7 301 471.3 301 450 301C428.7 301 407.3 301 385.8 301C364.3 301 342.7 301 321.2 301C299.7 301 278.3 301 257 301C235.7 301 214.3 301 193 301C171.7 301 150.3 301 128.8 301C107.3 301 85.7 301 64.2 301C42.7 301 21.3 301 10.7 301L0 301Z" fill="#41c124" stroke-linecap="round" stroke-linejoin="miter"></path></svg>