<svg id="visual" viewBox="0 0 220 400" width="220" height="400" xmlns="http://www.w3.org/2000/svg" xmlns:xlink="http://www.w3.org/1999/xlink" version="1.1"><rect x="0" y="0" width="220" height="400" fill="#5f24b7"></rect><path d="M153 400L147.2 390.5C141.3 381 129.7 362 130 343C130.3 324 142.7 305 144.3 286C146 267 137 248 137.2 228.8C137.3 209.7 146.7 190.3 145.3 171.2C144 152 132 133 135 114C138 95 156 76 155 57C154 38 134 19 124 9.5L114 0L220 0L220 9.5C220 19 220 38 220 57C220 76 220 95 220 114C220 133 220 152 220 171.2C220 190.3 220 209.7 220 228.8C220 248 220 267 220 286C220 305 220 324 220 343C220 362 220 381 220 390.5L220 400Z" fill="#ffffff" stroke-linecap="round" stroke-linejoin="miter"></path></svg>