<svg id="visual" viewBox="0 0 220 400" width="220" height="400" xmlns="http://www.w3.org/2000/svg" xmlns:xlink="http://www.w3.org/1999/xlink" version="1.1"><rect x="0" y="0" width="220" height="400" fill="#5f24b7"></rect><path d="M180 400L177.5 393.3C175 386.7 170 373.3 161.7 360C153.3 346.7 141.7 333.3 136.7 320C131.7 306.7 133.3 293.3 133.7 280C134 266.7 133 253.3 135.8 240C138.7 226.7 145.3 213.3 145 200C144.7 186.7 137.3 173.3 137.3 160C137.3 146.7 144.7 133.3 145.7 120C146.7 106.7 141.3 93.3 140.3 80C139.3 66.7 142.7 53.3 143.7 40C144.7 26.7 143.3 13.3 142.7 6.7L142 0L220 0L220 6.7C220 13.3 220 26.7 220 40C220 53.3 220 66.7 220 80C220 93.3 220 106.7 220 120C220 133.3 220 146.7 220 160C220 173.3 220 186.7 220 200C220 213.3 220 226.7 220 240C220 253.3 220 266.7 220 280C220 293.3 220 306.7 220 320C220 333.3 220 346.7 220 360C220 373.3 220 386.7 220 393.3L220 400Z" fill="#121212" stroke-linecap="round" stroke-linejoin="miter"></path></svg>