<svg id="visual" viewBox="0 0 220 400" width="220" height="400" xmlns="http://www.w3.org/2000/svg" xmlns:xlink="http://www.w3.org/1999/xlink" version="1.1"><rect x="0" y="0" width="220" height="400" fill="#41c124"></rect><path d="M41 0L43.5 9.5C46 19 51 38 53.3 57C55.7 76 55.3 95 53.5 114C51.7 133 48.3 152 49.3 171.2C50.3 190.3 55.7 209.7 58.3 228.8C61 248 61 267 59.2 286C57.3 305 53.7 324 49.2 343C44.7 362 39.3 381 36.7 390.5L34 400L0 400L0 390.5C0 381 0 362 0 343C0 324 0 305 0 286C0 267 0 248 0 228.8C0 209.7 0 190.3 0 171.2C0 152 0 133 0 114C0 95 0 76 0 57C0 38 0 19 0 9.5L0 0Z" fill="#ffffff" stroke-linecap="round" stroke-linejoin="miter"></path></svg>