<svg id="visual" viewBox="0 0 900 100" width="900" height="100" xmlns="http://www.w3.org/2000/svg" xmlns:xlink="http://www.w3.org/1999/xlink" version="1.1"><rect x="0" y="0" width="900" height="100" fill="#121212"></rect><path d="M0 56L8.3 58.5C16.7 61 33.3 66 50 65.7C66.7 65.3 83.3 59.7 100 58.3C116.7 57 133.3 60 150 60.8C166.7 61.7 183.3 60.3 200 58.8C216.7 57.3 233.3 55.7 250 58.3C266.7 61 283.3 68 300 67.8C316.7 67.7 333.3 60.3 350 56.2C366.7 52 383.3 51 400 54C416.7 57 433.3 64 450 67C466.7 70 483.3 69 500 69.5C516.7 70 533.3 72 550 73C566.7 74 583.3 74 600 73.2C616.7 72.3 633.3 70.7 650 66.8C666.7 63 683.3 57 700 56.7C716.7 56.3 733.3 61.7 750 63.3C766.7 65 783.3 63 800 61C816.7 59 833.3 57 850 55.7C866.7 54.3 883.3 53.7 891.7 53.3L900 53L900 101L891.7 101C883.3 101 866.7 101 850 101C833.3 101 816.7 101 800 101C783.3 101 766.7 101 750 101C733.3 101 716.7 101 700 101C683.3 101 666.7 101 650 101C633.3 101 616.7 101 600 101C583.3 101 566.7 101 550 101C533.3 101 516.7 101 500 101C483.3 101 466.7 101 450 101C433.3 101 416.7 101 400 101C383.3 101 366.7 101 350 101C333.3 101 316.7 101 300 101C283.3 101 266.7 101 250 101C233.3 101 216.7 101 200 101C183.3 101 166.7 101 150 101C133.3 101 116.7 101 100 101C83.3 101 66.7 101 50 101C33.3 101 16.7 101 8.3 101L0 101Z" fill="#5f24b7" stroke-linecap="round" stroke-linejoin="miter"></path></svg>