<svg id="visual" viewBox="0 0 900 600" width="900" height="600" xmlns="http://www.w3.org/2000/svg" xmlns:xlink="http://www.w3.org/1999/xlink" version="1.1"><rect x="0" y="0" width="900" height="600" fill="#0066FF"></rect><path d="M109 0L103 14.3C97 28.7 85 57.3 82.5 85.8C80 114.3 87 142.7 91.2 171.2C95.3 199.7 96.7 228.3 100.5 257C104.3 285.7 110.7 314.3 111.3 343C112 371.7 107 400.3 104 428.8C101 457.3 100 485.7 99.7 514.2C99.3 542.7 99.7 571.3 99.8 585.7L100 600L0 600L0 585.7C0 571.3 0 542.7 0 514.2C0 485.7 0 457.3 0 428.8C0 400.3 0 371.7 0 343C0 314.3 0 285.7 0 257C0 228.3 0 199.7 0 171.2C0 142.7 0 114.3 0 85.8C0 57.3 0 28.7 0 14.3L0 0Z" fill="#ffffff" stroke-linecap="round" stroke-linejoin="miter"></path></svg>